<svg width="160" height="160" viewBox="0 0 160 160" fill="none" xmlns="http://www.w3.org/2000/svg">
<g clip-path="url(#clip0_12_15)">
<path d="M130 0H30C13.4315 0 0 13.4315 0 30V130C0 146.569 13.4315 160 30 160H130C146.569 160 160 146.569 160 130V30C160 13.4315 146.569 0 130 0Z" fill="url(#paint0_linear_12_15)"/>
<path d="M27.0392 130.154C23.3196 130.154 20.8462 127.587 20.8462 123.64C20.8462 119.694 23.5084 117.127 27.549 117.127C31.1363 117.127 33.6286 118.939 33.6286 121.866V122.017H31.3818V121.866C31.3818 120.053 30.1168 119.071 27.4923 119.071C24.4525 119.071 22.9986 120.487 22.9986 123.64C22.9986 126.794 24.4336 128.191 27.3979 128.191C30.4189 128.191 31.6084 127.36 31.6084 125.226V125.057H26.9259V123.508H33.6286V129.966H31.7783V127.228H31.6461C31.1175 129.078 29.5126 130.154 27.0392 130.154ZM39.256 130.154C36.6127 130.154 35.3288 128.398 35.3288 126.227V120.582H37.3491V125.68C37.3491 127.436 38.161 128.323 40.1435 128.323C42.2204 128.323 43.1833 127.266 43.1833 125.226V120.582H45.2036V129.966H43.3343V127.058H43.2211C42.919 128.644 41.6728 130.154 39.256 130.154ZM51.7763 130.154C48.6987 130.154 46.6785 128.417 46.6785 125.283C46.6785 122.357 48.6799 120.393 51.7386 120.393C54.6463 120.393 56.6288 121.998 56.6288 124.849C56.6288 125.189 56.6099 125.453 56.5532 125.736H48.5855C48.661 127.549 49.5484 128.512 51.7197 128.512C53.6833 128.512 54.4952 127.87 54.4952 126.756V126.605H56.5344V126.775C56.5344 128.776 54.5707 130.154 51.7763 130.154ZM51.7008 121.998C49.6239 121.998 48.7176 122.923 48.6043 124.603H54.7029V124.566C54.7029 122.829 53.7022 121.998 51.7008 121.998ZM62.5931 130.154C59.5721 130.154 57.854 128.965 57.854 126.794V126.737H59.8931V126.888C59.8931 128.115 60.6295 128.512 62.5931 128.512C64.4245 128.512 64.9721 128.134 64.9721 127.303C64.9721 126.529 64.5189 126.284 63.1784 126.095L60.6106 125.755C58.8358 125.529 57.7596 124.773 57.7596 123.206C57.7596 121.564 59.2511 120.393 62.1399 120.393C65.0098 120.393 66.7469 121.545 66.7469 123.773V123.829H64.7266V123.716C64.7266 122.602 64.1602 122.017 62.0833 122.017C60.3651 122.017 59.7609 122.394 59.7609 123.282C59.7609 124.018 60.1386 124.282 61.5546 124.471L63.7259 124.773C65.9539 125.057 66.9735 125.812 66.9735 127.36C66.9735 129.116 65.2364 130.154 62.5931 130.154ZM74.5999 129.966H72.4475C70.4272 129.966 69.1811 129.078 69.1811 126.794V122.281H67.5951V120.582H69.1811V118.524H71.2013V120.582H74.5999V122.281H71.2013V126.68C71.2013 127.832 71.73 128.134 72.9006 128.134H74.5999V129.966ZM81.1413 129.966H79.1021V117.315H81.1413V122.678H88.5804V117.315H90.6006V129.966H88.5804V124.509H81.1413V129.966ZM97.3027 130.154C94.1873 130.154 92.0915 128.172 92.0915 125.283C92.0915 122.357 94.1873 120.393 97.3027 120.393C100.437 120.393 102.533 122.357 102.533 125.283C102.533 128.172 100.437 130.154 97.3027 130.154ZM97.3027 128.342C99.5872 128.342 100.531 127.266 100.531 125.283C100.531 123.282 99.5872 122.187 97.3027 122.187C95.0369 122.187 94.0929 123.282 94.0929 125.283C94.0929 127.266 95.0369 128.342 97.3027 128.342ZM107.921 130.154C105.278 130.154 103.994 128.398 103.994 126.227V120.582H106.014V125.68C106.014 127.436 106.826 128.323 108.808 128.323C110.885 128.323 111.848 127.266 111.848 125.226V120.582H113.868V129.966H111.999V127.058H111.886C111.584 128.644 110.338 130.154 107.921 130.154ZM120.158 130.154C117.137 130.154 115.419 128.965 115.419 126.794V126.737H117.458V126.888C117.458 128.115 118.194 128.512 120.158 128.512C121.989 128.512 122.537 128.134 122.537 127.303C122.537 126.529 122.084 126.284 120.743 126.095L118.175 125.755C116.401 125.529 115.324 124.773 115.324 123.206C115.324 121.564 116.816 120.393 119.705 120.393C122.575 120.393 124.312 121.545 124.312 123.773V123.829H122.291V123.716C122.291 122.602 121.725 122.017 119.648 122.017C117.93 122.017 117.326 122.394 117.326 123.282C117.326 124.018 117.703 124.282 119.119 124.471L121.291 124.773C123.519 125.057 124.538 125.812 124.538 127.36C124.538 129.116 122.801 130.154 120.158 130.154ZM130.73 130.154C127.652 130.154 125.632 128.417 125.632 125.283C125.632 122.357 127.633 120.393 130.692 120.393C133.6 120.393 135.582 121.998 135.582 124.849C135.582 125.189 135.563 125.453 135.507 125.736H127.539C127.614 127.549 128.502 128.512 130.673 128.512C132.637 128.512 133.449 127.87 133.449 126.756V126.605H135.488V126.775C135.488 128.776 133.524 130.154 130.73 130.154ZM130.654 121.998C128.577 121.998 127.671 122.923 127.558 124.603H133.656V124.566C133.656 122.829 132.656 121.998 130.654 121.998Z" fill="white"/>
<path d="M41.7209 68H32.752V36.0365H41.7209V47.9154H48.1613L55.9375 36.0365H66.6715L55.6035 51.732L66.433 68H55.699L48.2567 56.6458H41.7209V68ZM76.6158 41.7613H67.6469V36.0365H76.6158V41.7613ZM76.6158 68H67.6469V43.9558H76.6158V68ZM88.4493 68H79.4804V43.9558H87.8768V51.2549H88.3539C88.8787 47.2476 91.5025 43.4787 97.9429 43.4787C104.431 43.4787 107.484 47.3907 107.484 52.5907V68H98.5154V55.8825C98.5154 52.543 97.275 51.4935 93.3631 51.4935C89.4034 51.4935 88.4493 52.4953 88.4493 55.5962V68ZM120.822 65.3284C113.666 65.3284 109.659 61.2256 109.659 54.3559C109.659 47.5815 113.952 43.4787 121.061 43.4787C125.927 43.4787 129.171 45.4347 129.839 49.5852H130.316V43.9558H138.712V63.9449C138.712 72.5321 133.607 76.5872 124.352 76.5872C115.956 76.5872 111.09 73.0569 111.09 66.7596H120.059C120.059 68.7156 120.297 69.1927 124.973 69.1927C128.837 69.1927 129.743 68.6202 129.743 64.5651V59.5082H129.266C128.646 62.9908 126.118 65.3284 120.822 65.3284ZM118.723 54.3559C118.723 56.7412 119.868 57.6476 124.066 57.6476C128.073 57.6476 129.743 57.1706 129.743 54.6421V54.3082C129.743 51.732 128.073 51.2072 124.066 51.2072C119.868 51.2072 118.723 52.0182 118.723 54.3559Z" fill="#FF5B10"/>
<path d="M36.1717 111.456C26.8331 111.456 21.1389 108.13 21.1389 100.386V100.113H29.703V101.069C29.703 103.119 30.4319 103.666 36.1717 103.666C41.3649 103.666 41.9115 103.256 41.9115 101.889C41.9115 100.796 41.3193 100.34 38.8139 100.021L29.2475 98.7459C23.5532 97.9715 20.6833 94.9194 20.6833 89.9995C20.6833 85.1253 24.4643 80.0232 35.4884 80.0232C45.1914 80.0232 49.838 84.2597 49.838 91.0928V91.3662H41.2738V90.6829C41.2738 88.4963 40.3171 87.7674 34.5773 87.7674C30.2041 87.7674 29.2475 88.3596 29.2475 89.6807C29.2475 90.6373 29.7941 91.0928 31.4341 91.3206L41.0005 92.7328C48.4713 93.8261 50.4757 97.6526 50.4757 101.57C50.4757 106.809 46.467 111.456 36.1717 111.456ZM61.9369 111.456C55.5137 111.456 52.5071 107.72 52.5071 102.755V88.0407H61.0713V99.6115C61.0713 102.8 62.3013 103.802 66.2189 103.802C70.1822 103.802 71.1388 102.846 71.1388 99.8848V88.0407H79.703V111H71.6854V104.03H71.2299C70.7288 107.857 68.1778 111.456 61.9369 111.456ZM90.8328 111H82.2686V80.4787H90.8328V96.0127H94.8871L99.9436 88.0407H110.057L101.902 99.2015L109.92 111H99.8069L94.9782 103.666H90.8328V111ZM119.527 111H110.962V80.4787H119.527V95.0105H119.982C120.711 91.1384 123.262 87.5852 129.138 87.5852C135.243 87.5852 138.158 91.4573 138.158 96.5593V111H129.594V99.4292C129.594 96.2405 128.364 95.2383 124.446 95.2383C120.483 95.2383 119.527 96.1949 119.527 99.1559V111Z" fill="white"/>
<g clip-path="url(#clip1_12_15)">
<path d="M23.0413 54.0904V49.7956L22.6953 49.8167V47.1714L26.0324 47.1503V49.7555H25.6865V52.2784L23.0413 54.0904Z" fill="#AB5832"/>
<path d="M32.5237 48.688L22.9385 58.3197L23.0123 67.2236L41.9445 67.0443L41.9719 57.5518L32.5237 48.688Z" fill="#FFF3E1"/>
<path d="M22.5806 65.6605L23.2429 65.2956V58.1066L22.627 58.518C22.6249 58.518 22.6945 65.6605 22.5806 65.6605ZM41.614 58.4948V65.2513L42.2763 65.6162V58.7458L41.614 58.4948Z" fill="#5F4E47"/>
<path d="M32.5865 49.7175L22.6216 59.0433V56.6913L32.5971 47.2432L42.273 57.263V59.2479L32.5865 49.7175Z" fill="#BCAA93"/>
<path d="M21.6478 56.2883L21.0635 57.3663L22.6308 57.3431C22.6308 57.3431 32.408 47.8337 32.6189 47.8253C32.8742 47.8148 42.2717 57.5097 42.2717 57.5097L43.6618 57.4886L33.2328 46.2538L31.7013 46.1525L21.6478 56.2883Z" fill="#AB5832"/>
<path d="M19.8429 57.0962C19.6783 57.2966 19.8408 57.4021 19.9737 57.4021C20.1065 57.4021 21.638 57.3578 21.638 57.3578L32.1936 47.087C32.1936 47.087 32.4362 46.8381 32.6091 46.8465C32.7969 46.8549 33.0395 47.0933 33.0395 47.0933L43.6457 57.4907C43.6457 57.4907 44.8544 57.4949 45.0464 57.4464C45.2552 57.3958 45.1497 57.1975 44.8924 56.9211C44.7025 56.7165 33.9803 46.1103 33.8031 45.9268C33.2757 45.3826 33.0184 45.0661 32.5205 45.0872C32.0206 45.1083 31.7253 45.4775 31.2254 45.9373C31.0777 46.0766 19.9125 57.0118 19.8429 57.0962Z" fill="#FF5B10"/>
<path d="M38.7239 60.8173H40.8861V59.0179C40.8861 58.9384 40.8704 58.8597 40.84 58.7863C40.8096 58.7128 40.765 58.6461 40.7087 58.5899C40.6525 58.5336 40.5858 58.489 40.5123 58.4586C40.4389 58.4282 40.3602 58.4125 40.2807 58.4125H38.7239V60.8173ZM38.0742 60.8173V58.4125H36.3866C36.3071 58.4125 36.2284 58.4282 36.155 58.4586C36.0815 58.489 36.0148 58.5336 35.9586 58.5899C35.9023 58.6461 35.8577 58.7128 35.8273 58.7863C35.7969 58.8597 35.7812 58.9384 35.7812 59.0179V60.8194H38.0742V60.8173ZM38.0742 61.5007H35.7812V63.1883C35.7812 63.3489 35.845 63.5028 35.9586 63.6164C36.0721 63.7299 36.2261 63.7937 36.3866 63.7937H38.0742V61.5007ZM38.7239 61.5007V63.7937H40.2807C40.4412 63.7937 40.5952 63.7299 40.7087 63.6164C40.8223 63.5028 40.8861 63.3489 40.8861 63.1883V61.5007H38.7239ZM26.7529 60.8173H28.915V59.0179C28.915 58.9384 28.8994 58.8597 28.869 58.7863C28.8385 58.7128 28.7939 58.6461 28.7377 58.5899C28.6815 58.5336 28.6148 58.489 28.5413 58.4586C28.4679 58.4282 28.3891 58.4125 28.3096 58.4125H26.7529V60.8173ZM26.1011 60.8173V58.4125H24.4135C24.334 58.4125 24.2553 58.4282 24.1818 58.4586C24.1084 58.489 24.0416 58.5336 23.9854 58.5899C23.9292 58.6461 23.8846 58.7128 23.8542 58.7863C23.8238 58.8597 23.8081 58.9384 23.8081 59.0179V60.8194H26.1011V60.8173ZM26.1011 61.5007H23.8102V63.1883C23.8102 63.3489 23.874 63.5028 23.9875 63.6164C24.1011 63.7299 24.2551 63.7937 24.4156 63.7937H26.1032V61.5007H26.1011ZM26.7529 61.5007V63.7937H28.3096C28.4702 63.7937 28.6242 63.7299 28.7377 63.6164C28.8513 63.5028 28.915 63.3489 28.915 63.1883V61.5007H26.7529Z" fill="#A6CFD5"/>
<path d="M29.6171 66.2808C29.6171 66.2808 29.5854 61.062 29.6171 59.7436C29.6487 58.4273 30.8849 57.2882 32.3172 57.3368C34.0891 57.3979 35.0004 58.3936 35.0658 59.6782C35.1311 60.9629 35.1311 66.3609 35.1311 66.3609L29.6171 66.2808Z" fill="#D27857"/>
<path d="M30.2793 66.5633C30.2793 66.5633 30.254 61.0029 30.2793 59.9735C30.311 58.6973 31.2729 58.0265 32.3909 58.0897C33.6924 58.1636 34.3358 58.8555 34.3864 59.8617C34.437 60.8657 34.437 66.5675 34.437 66.5675L30.2793 66.5633Z" fill="#AB5932"/>
<path d="M33.7654 62.0302C33.7612 61.1147 33.7527 60.3068 33.7401 60.06C33.7063 59.3955 33.2338 58.8787 32.3162 58.8471C31.5758 58.8217 30.9662 59.3997 30.9493 60.0811C30.943 60.3321 30.9451 61.121 30.9493 62.0196L33.7654 62.0302ZM30.9556 63.0575C30.9641 64.2831 30.9746 65.4116 30.9746 65.4116L33.7738 65.42C33.7738 65.42 33.7738 64.2957 33.7696 63.0701L30.9556 63.0575Z" fill="#D27857"/>
<path d="M33.7726 62.5006C33.7621 62.798 33.8823 63.0385 34.2346 63.0385C34.5868 63.0385 34.7155 62.874 34.7408 62.5555C34.7619 62.2707 34.5658 62.0176 34.2346 62.0386C33.9055 62.0618 33.781 62.2918 33.7726 62.5006Z" fill="#FFBA02"/>
<path d="M35.7933 68.3015C35.7933 68.3015 38.0883 68.3247 39.7463 68.2762C41.4044 68.2277 42.6046 68.3015 42.8514 68.0526C43.0982 67.8058 43.094 65.7027 41.9444 65.1331C40.8875 64.61 40.2041 65.1416 39.8413 65.1774C39.3624 65.2259 38.7697 64.9285 38.3351 64.9201C36.54 64.8821 35.9114 66.2933 35.9114 66.2933L35.7933 68.3015ZM22.0651 68.1285C22.257 68.3078 23.7231 68.3141 25.4929 68.3015C27.2627 68.2888 28.6866 68.3057 28.6866 68.3057L28.9819 66.519L28.6233 66.2216C28.6233 66.2216 28.6634 65.3272 27.5348 65.0213C26.7544 64.8104 26.0751 65.1584 25.4191 65.169C24.7631 65.1816 24.1576 64.8842 23.4278 65.0572C22.7485 65.2175 22.2191 65.6605 22.0039 66.5549C21.8541 67.1751 21.8921 67.9661 22.0651 68.1285Z" fill="#728037"/>
<path d="M28.4751 70.1706L28.4899 68.3037H28.627L28.6249 66.2238H35.9509L35.9256 68.3037H36.0859V70.122C36.0838 70.1199 28.4751 70.1811 28.4751 70.1706Z" fill="#B0B0B0"/>
<path d="M36.0825 69.3541V70.1198L28.4717 70.1705L28.478 69.3478L36.0825 69.3541ZM28.6214 67.4936L35.9306 67.4957V68.3015H28.6214V67.4936Z" fill="#9B9B9B"/>
</g>
<rect x="42.3623" y="55.8806" width="8.65281" height="1.73056" fill="#FF5B10"/>
</g>
<defs>
<linearGradient id="paint0_linear_12_15" x1="4.58467e-06" y1="160" x2="189.828" y2="101.078" gradientUnits="userSpaceOnUse">
<stop stop-color="#002E88"/>
<stop offset="1" stop-color="#1F6FE8"/>
</linearGradient>
<clipPath id="clip0_12_15">
<rect width="160" height="160" fill="white"/>
</clipPath>
<clipPath id="clip1_12_15">
<rect width="27.0007" height="27.0007" fill="white" transform="translate(19 43.7668)"/>
</clipPath>
</defs>
</svg>
